<svg id="visual" viewBox="0 0 960 540" width="960" height="540" xmlns="http://www.w3.org/2000/svg" xmlns:xlink="http://www.w3.org/1999/xlink" version="1.1"><rect x="0" y="0" width="960" height="540" fill="#41228e"></rect><path d="M0 350L107 357L213 359L320 321L427 294L533 279L640 285L747 342L853 323L960 320L960 541L853 541L747 541L640 541L533 541L427 541L320 541L213 541L107 541L0 541Z" fill="#6457a4"></path><path d="M0 326L107 320L213 303L320 385L427 385L533 351L640 351L747 299L853 319L960 361L960 541L853 541L747 541L640 541L533 541L427 541L320 541L213 541L107 541L0 541Z" fill="#7b6db1"></path><path d="M0 379L107 335L213 405L320 390L427 396L533 373L640 346L747 407L853 392L960 331L960 541L853 541L747 541L640 541L533 541L427 541L320 541L213 541L107 541L0 541Z" fill="#9184be"></path><path d="M0 390L107 427L213 424L320 379L427 359L533 427L640 428L747 380L853 430L960 379L960 541L853 541L747 541L640 541L533 541L427 541L320 541L213 541L107 541L0 541Z" fill="#a79bcb"></path><path d="M0 399L107 437L213 418L320 439L427 452L533 414L640 451L747 432L853 411L960 446L960 541L853 541L747 541L640 541L533 541L427 541L320 541L213 541L107 541L0 541Z" fill="#bdb3d8"></path><path d="M0 463L107 443L213 444L320 445L427 463L533 461L640 425L747 425L853 450L960 462L960 541L853 541L747 541L640 541L533 541L427 541L320 541L213 541L107 541L0 541Z" fill="#d3cce5"></path><path d="M0 497L107 457L213 458L320 464L427 491L533 470L640 457L747 477L853 490L960 483L960 541L853 541L747 541L640 541L533 541L427 541L320 541L213 541L107 541L0 541Z" fill="#e9e5f2"></path><path d="M0 494L107 504L213 489L320 505L427 488L533 493L640 512L747 503L853 509L960 514L960 541L853 541L747 541L640 541L533 541L427 541L320 541L213 541L107 541L0 541Z" fill="#ffffff"></path></svg>